STARTFONT 2.1
COMMENT
COMMENT Converted from OpenType font "Q:\font stuff\winfont\Continuum Medium.ttf" by "otf2bdf 3.0".
COMMENT
FONT -FreeType-Continuum Medium-Medium-R-Normal--24-240-72-72-P-106-ISO10646-1
SIZE 24 72 72
FONTBOUNDINGBOX 28 30 -4 -6
STARTPROPERTIES 19
FOUNDRY "FreeType"
FAMILY_NAME "Continuum Medium"
WEIGHT_NAME "Medium"
SLANT "R"
SETWIDTH_NAME "Normal"
ADD_STYLE_NAME ""
PIXEL_SIZE 24
POINT_SIZE 240
RESOLUTION_X 72
RESOLUTION_Y 72
SPACING "P"
AVERAGE_WIDTH 106
CHARSET_REGISTRY "ISO10646"
CHARSET_ENCODING "1"
FONT_ASCENT 24
FONT_DESCENT 5
COPYRIGHT "Copyright © 1996, 1997 Brøderbund Software. All rights reserved."
_OTF_FONTFILE "Q:\font stuff\winfont\Continuum Medium.ttf"
_OTF_PSNAME "ContinuumMedium"
ENDPROPERTIES
CHARS 246
STARTCHAR 0020
ENCODING 32
SWIDTH 291 0
DWIDTH 7 0
BBX 0 0 0 0
BITMAP
ENDCHAR
STARTCHAR 0021
ENCODING 33
SWIDTH 250 0
DWIDTH 6 0
BBX 2 17 2 0
BITMAP
C0
C0
C0
C0
C0
C0
C0
C0
C0
C0
C0
C0
C0
00
00
40
40
ENDCHAR
STARTCHAR 0022
ENCODING 34
SWIDTH 291 0
DWIDTH 7 0
BBX 5 6 1 11
BITMAP
58
F8
F8
F8
F8
F8
ENDCHAR
STARTCHAR 0023
ENCODING 35
SWIDTH 583 0
DWIDTH 14 0
BBX 13 17 1 0
BITMAP
0660
06E0
0EE0
0EC0
0CC0
7FF8
7FF0
1D80
1D80
1980
FFF0
FFE0
3B00
3B00
3300
3700
7700
ENDCHAR
STARTCHAR 0024
ENCODING 36
SWIDTH 541 0
DWIDTH 13 0
BBX 11 20 1 -2
BITMAP
0C00
7FE0
FFE0
CC00
CC00
CC00
CC00
CC00
FF80
7FC0
0CE0
0C60
0C60
0C60
0C60
0CE0
FFC0
FF80
0C00
0C00
ENDCHAR
STARTCHAR 0025
ENCODING 37
SWIDTH 708 0
DWIDTH 17 0
BBX 16 17 1 0
BITMAP
7C18
FE38
C630
C670
C660
FEE0
7CC0
0180
0380
0300
073E
067F
0E63
0C63
1C63
187F
303E
ENDCHAR
STARTCHAR 0026
ENCODING 38
SWIDTH 708 0
DWIDTH 17 0
BBX 15 17 1 0
BITMAP
1F80
3FC0
6060
6060
6060
70E0
3BC0
1F80
3E18
7E18
E718
C398
C1F8
C0F8
C078
7FFC
3FDE
ENDCHAR
STARTCHAR 0027
ENCODING 39
SWIDTH 166 0
DWIDTH 4 0
BBX 2 6 1 11
BITMAP
40
C0
C0
C0
C0
C0
ENDCHAR
STARTCHAR 0028
ENCODING 40
SWIDTH 250 0
DWIDTH 6 0
BBX 4 21 1 -2
BITMAP
70
60
60
C0
C0
C0
C0
C0
C0
C0
C0
C0
C0
C0
C0
C0
C0
C0
60
60
70
ENDCHAR
STARTCHAR 0029
ENCODING 41
SWIDTH 250 0
DWIDTH 6 0
BBX 4 21 1 -2
BITMAP
E0
60
30
30
30
30
30
30
30
30
30
30
30
30
30
30
30
30
30
60
E0
ENDCHAR
STARTCHAR 002A
ENCODING 42
SWIDTH 375 0
DWIDTH 9 0
BBX 7 8 1 9
BITMAP
18
12
D6
3C
3C
D6
12
18
ENDCHAR
STARTCHAR 002B
ENCODING 43
SWIDTH 625 0
DWIDTH 15 0
BBX 13 13 1 2
BITMAP
0600
0600
0600
0600
0600
0600
FFF8
FFF8
0600
0600
0600
0600
0600
ENDCHAR
STARTCHAR 002C
ENCODING 44
SWIDTH 166 0
DWIDTH 4 0
BBX 2 5 1 -2
BITMAP
80
C0
80
80
80
ENDCHAR
STARTCHAR 002D
ENCODING 45
SWIDTH 333 0
DWIDTH 8 0
BBX 6 3 1 5
BITMAP
FC
FC
E0
ENDCHAR
STARTCHAR 002E
ENCODING 46
SWIDTH 166 0
DWIDTH 4 0
BBX 2 3 2 0
BITMAP
80
C0
80
ENDCHAR
STARTCHAR 002F
ENCODING 47
SWIDTH 583 0
DWIDTH 14 0
BBX 11 17 1 0
BITMAP
0060
00E0
00C0
01C0
0180
0300
0300
0600
0600
0C00
1C00
1800
3800
3000
6000
6000
C000
ENDCHAR
STARTCHAR 0030
ENCODING 48
SWIDTH 625 0
DWIDTH 15 0
BBX 12 17 2 0
BITMAP
3F80
FFE0
FE60
C060
C030
C030
C030
C030
C030
C030
C030
C030
C030
C060
C060
7FE0
3F80
ENDCHAR
STARTCHAR 0031
ENCODING 49
SWIDTH 625 0
DWIDTH 15 0
BBX 2 17 6 0
BITMAP
C0
C0
C0
C0
C0
C0
C0
C0
C0
C0
C0
C0
C0
C0
C0
C0
C0
ENDCHAR
STARTCHAR 0032
ENCODING 50
SWIDTH 625 0
DWIDTH 15 0
BBX 11 17 2 0
BITMAP
FF80
FFC0
0060
0060
0060
0060
0060
0060
3FC0
7F80
E000
C000
C000
C000
C000
FFE0
FFE0
ENDCHAR
STARTCHAR 0033
ENCODING 51
SWIDTH 625 0
DWIDTH 15 0
BBX 11 17 2 0
BITMAP
FF80
FFC0
0060
0060
0060
0060
0060
1FE0
1F80
00C0
0060
0060
0060
0060
0060
FFC0
FF80
ENDCHAR
STARTCHAR 0034
ENCODING 52
SWIDTH 625 0
DWIDTH 15 0
BBX 11 17 2 0
BITMAP
0760
0660
0E60
0C60
1860
3860
3060
7060
E060
C060
FFE0
7FE0
0060
0060
0060
0060
0060
ENDCHAR
STARTCHAR 0035
ENCODING 53
SWIDTH 625 0
DWIDTH 15 0
BBX 11 17 2 0
BITMAP
FFE0
FFE0
C000
C000
C000
C000
FF80
FFC0
0060
0060
0060
0060
0060
0060
0060
FFC0
FF80
ENDCHAR
STARTCHAR 0036
ENCODING 54
SWIDTH 625 0
DWIDTH 15 0
BBX 12 17 1 0
BITMAP
3FF0
7FF0
6000
E000
C000
C000
FFE0
FFF0
E030
C030
C030
C030
C030
E030
6030
7FF0
3FE0
ENDCHAR
STARTCHAR 0037
ENCODING 55
SWIDTH 625 0
DWIDTH 15 0
BBX 11 17 2 0
BITMAP
FFE0
FFE0
0060
00E0
00C0
00C0
0180
0180
0380
0300
0300
0600
0600
0C00
0C00
1C00
1800
ENDCHAR
STARTCHAR 0038
ENCODING 56
SWIDTH 625 0
DWIDTH 15 0
BBX 12 17 2 0
BITMAP
7FC0
FFE0
FF60
C070
C030
C070
C060
FFE0
7FC0
C060
C060
C030
C030
C070
C060
FFE0
3FC0
ENDCHAR
STARTCHAR 0039
ENCODING 57
SWIDTH 625 0
DWIDTH 15 0
BBX 12 17 1 0
BITMAP
3FE0
7FF0
6030
C030
C030
C030
C030
C030
6030
7FF0
3FF0
0030
0030
0030
0030
FFF0
FFE0
ENDCHAR
STARTCHAR 003A
ENCODING 58
SWIDTH 208 0
DWIDTH 5 0
BBX 3 10 1 0
BITMAP
E0
E0
00
00
00
00
00
60
60
60
ENDCHAR
STARTCHAR 003B
ENCODING 59
SWIDTH 208 0
DWIDTH 5 0
BBX 3 12 1 -2
BITMAP
60
60
40
00
00
00
00
E0
E0
E0
C0
C0
ENDCHAR
STARTCHAR 003C
ENCODING 60
SWIDTH 500 0
DWIDTH 12 0
BBX 11 9 0 4
BITMAP
0060
01E0
0FC0
7E00
F000
FE00
1FC0
03E0
0060
ENDCHAR
STARTCHAR 003D
ENCODING 61
SWIDTH 666 0
DWIDTH 16 0
BBX 13 7 1 5
BITMAP
FFF8
FFF8
0000
0000
0000
FFF8
FFF8
ENDCHAR
STARTCHAR 003E
ENCODING 62
SWIDTH 458 0
DWIDTH 11 0
BBX 11 9 0 4
BITMAP
4000
F800
3F00
07E0
01E0
07E0
3F00
F800
4000
ENDCHAR
STARTCHAR 003F
ENCODING 63
SWIDTH 500 0
DWIDTH 12 0
BBX 11 17 0 0
BITMAP
FFC0
FFE0
FFE0
00E0
0060
0060
0060
0060
1FC0
1F00
1800
1800
1800
0000
0000
1000
1000
ENDCHAR
STARTCHAR 0040
ENCODING 64
SWIDTH 708 0
DWIDTH 17 0
BBX 16 17 1 0
BITMAP
1FF8
7FFE
E006
C007
CFE3
CFF3
C033
C7F3
CFF3
CC33
CC36
CFFE
C7F8
C003
E006
7FFE
1FF8
ENDCHAR
STARTCHAR 0041
ENCODING 65
SWIDTH 625 0
DWIDTH 15 0
BBX 15 17 0 0
BITMAP
0300
0780
07C0
06C0
0EC0
0C60
0C60
1860
1830
1830
3030
3FF8
7FF8
601C
600C
C00C
C006
ENDCHAR
STARTCHAR 0042
ENCODING 66
SWIDTH 625 0
DWIDTH 15 0
BBX 12 17 1 0
BITMAP
FFE0
FFF0
C030
C030
C030
C030
C030
C030
FFE0
FFF0
C030
C030
C030
C030
C030
FFF0
FFE0
ENDCHAR
STARTCHAR 0043
ENCODING 67
SWIDTH 541 0
DWIDTH 13 0
BBX 11 17 1 0
BITMAP
3FE0
7FE0
6000
C000
C000
C000
C000
C000
C000
C000
C000
C000
C000
6000
6000
7FE0
3FE0
ENDCHAR
STARTCHAR 0044
ENCODING 68
SWIDTH 625 0
DWIDTH 15 0
BBX 12 17 1 0
BITMAP
FFE0
FFF0
C030
C030
C030
C030
C030
C030
C030
C030
C030
C030
C030
C030
C030
FFF0
FFC0
ENDCHAR
STARTCHAR 0045
ENCODING 69
SWIDTH 583 0
DWIDTH 14 0
BBX 12 17 1 0
BITMAP
3FF0
7FF0
6000
E000
C000
C000
C000
FFE0
FFE0
C000
C000
C000
C000
6000
6000
7FE0
3FE0
ENDCHAR
STARTCHAR 0046
ENCODING 70
SWIDTH 541 0
DWIDTH 13 0
BBX 12 17 1 0
BITMAP
3FF0
7FF0
6000
6000
C000
C000
C000
C000
FFF0
FFF0
C000
C000
C000
C000
C000
C000
C000
ENDCHAR
STARTCHAR 0047
ENCODING 71
SWIDTH 625 0
DWIDTH 15 0
BBX 12 17 1 0
BITMAP
3FE0
7FE0
6000
6000
C000
C000
C000
C030
C030
C030
C030
C030
C030
6030
6030
7FF0
1FE0
ENDCHAR
STARTCHAR 0048
ENCODING 72
SWIDTH 625 0
DWIDTH 15 0
BBX 12 17 1 0
BITMAP
C030
C030
C030
C030
C030
C030
C030
C030
FFF0
FFF0
C030
C030
C030
C030
C030
C030
C030
ENDCHAR
STARTCHAR 0049
ENCODING 73
SWIDTH 208 0
DWIDTH 5 0
BBX 2 17 1 0
BITMAP
C0
C0
C0
C0
C0
C0
C0
C0
C0
C0
C0
C0
C0
C0
C0
C0
C0
ENDCHAR
STARTCHAR 004A
ENCODING 74
SWIDTH 250 0
DWIDTH 6 0
BBX 5 17 0 0
BITMAP
18
18
18
18
18
18
18
18
18
18
18
18
18
18
38
F0
E0
ENDCHAR
STARTCHAR 004B
ENCODING 75
SWIDTH 583 0
DWIDTH 14 0
BBX 12 17 1 0
BITMAP
E070
E0E0
E1C0
E380
E300
E600
EE00
FC00
FC00
EE00
EE00
E700
E380
E1C0
E0E0
E0F0
E070
ENDCHAR
STARTCHAR 004C
ENCODING 76
SWIDTH 500 0
DWIDTH 12 0
BBX 11 17 1 0
BITMAP
C000
C000
C000
C000
C000
C000
C000
C000
C000
C000
C000
C000
C000
4000
6000
7FE0
3FE0
ENDCHAR
STARTCHAR 004D
ENCODING 77
SWIDTH 833 0
DWIDTH 20 0
BBX 17 17 1 0
BITMAP
700380
700380
F80780
D80780
D80780
DC0D80
CC0D80
CC0D80
CE1980
C61980
C61980
C73180
C33180
C33180
C3E180
C1E180
C1C180
ENDCHAR
STARTCHAR 004E
ENCODING 78
SWIDTH 625 0
DWIDTH 15 0
BBX 12 17 1 -1
BITMAP
6030
7030
F030
D830
D830
DC30
CC30
CE30
C630
C630
C330
C330
C1B0
C1B0
C0F0
C0F0
C070
ENDCHAR
STARTCHAR 004F
ENCODING 79
SWIDTH 625 0
DWIDTH 15 0
BBX 12 17 1 0
BITMAP
1FC0
7FF0
6030
6030
C030
C030
C030
C030
C030
C030
C030
C030
C030
6030
6030
3FF0
1FC0
ENDCHAR
STARTCHAR 0050
ENCODING 80
SWIDTH 583 0
DWIDTH 14 0
BBX 12 17 1 0
BITMAP
FFC0
FFF0
C030
C030
C030
C030
C030
C030
C030
FFF0
FFC0
C000
C000
C000
C000
C000
C000
ENDCHAR
STARTCHAR 0051
ENCODING 81
SWIDTH 625 0
DWIDTH 15 0
BBX 12 19 1 -2
BITMAP
3FE0
7FF0
6030
C030
C030
C030
C030
C030
C030
C030
C030
C030
C030
E030
6030
7FF0
3FC0
01E0
0070
ENDCHAR
STARTCHAR 0052
ENCODING 82
SWIDTH 625 0
DWIDTH 15 0
BBX 12 17 1 0
BITMAP
FFE0
FFF0
C030
C030
C030
C030
C030
C030
DFF0
DFE0
CC00
C600
C300
C380
C1C0
C0E0
C070
ENDCHAR
STARTCHAR 0053
ENCODING 83
SWIDTH 541 0
DWIDTH 13 0
BBX 11 17 1 0
BITMAP
3FE0
7FE0
C000
C000
C000
C000
C000
7F80
3FC0
00E0
0060
0060
0060
0060
00E0
FFC0
FF80
ENDCHAR
STARTCHAR 0054
ENCODING 84
SWIDTH 416 0
DWIDTH 10 0
BBX 10 17 0 0
BITMAP
FFC0
FFC0
0C00
0C00
0C00
0C00
0C00
0C00
0C00
0C00
0C00
0C00
0C00
0C00
0C00
0C00
0C00
ENDCHAR
STARTCHAR 0055
ENCODING 85
SWIDTH 625 0
DWIDTH 15 0
BBX 12 17 1 0
BITMAP
C030
C030
C030
C030
C030
C030
C030
C030
C030
C030
C030
C030
C030
E030
6030
7FF0
3FC0
ENDCHAR
STARTCHAR 0056
ENCODING 86
SWIDTH 583 0
DWIDTH 14 0
BBX 15 17 0 0
BITMAP
C00E
C00C
600C
6018
7018
3018
3030
3830
1870
1860
0C60
0CE0
0CC0
06C0
07C0
0780
0380
ENDCHAR
STARTCHAR 0057
ENCODING 87
SWIDTH 833 0
DWIDTH 20 0
BBX 20 17 0 0
BITMAP
C06070
60F060
60F060
60F060
61F060
6198C0
3198C0
3198C0
3198C0
3399C0
1B0D80
1B0D80
1B0D80
1B0D80
1E0F00
0E0700
0E0700
ENDCHAR
STARTCHAR 0058
ENCODING 88
SWIDTH 625 0
DWIDTH 15 0
BBX 15 17 0 0
BITMAP
701C
3018
1838
1C70
0E60
06C0
07C0
0380
0380
07C0
0EE0
0C70
1830
3818
301C
600C
E006
ENDCHAR
STARTCHAR 0059
ENCODING 89
SWIDTH 583 0
DWIDTH 14 0
BBX 14 17 0 0
BITMAP
C01C
6018
6030
3070
3860
18C0
0DC0
0F80
0700
0700
0300
0300
0300
0300
0300
0300
0300
ENDCHAR
STARTCHAR 005A
ENCODING 90
SWIDTH 500 0
DWIDTH 12 0
BBX 11 17 1 0
BITMAP
FFC0
FFE0
00C0
0180
0380
0300
0600
0E00
0C00
1800
3800
7000
6000
E000
C000
FFE0
7FE0
ENDCHAR
STARTCHAR 005B
ENCODING 91
SWIDTH 250 0
DWIDTH 6 0
BBX 4 21 1 -3
BITMAP
F0
F0
C0
C0
C0
C0
C0
C0
C0
C0
C0
C0
C0
C0
C0
C0
C0
C0
C0
F0
F0
ENDCHAR
STARTCHAR 005C
ENCODING 92
SWIDTH 583 0
DWIDTH 14 0
BBX 11 17 2 0
BITMAP
C000
C000
6000
7000
3000
3800
1800
0C00
0C00
0600
0700
0300
0380
0180
00C0
00C0
0060
ENDCHAR
STARTCHAR 005D
ENCODING 93
SWIDTH 250 0
DWIDTH 6 0
BBX 4 21 1 -3
BITMAP
F0
F0
30
30
30
30
30
30
30
30
30
30
30
30
30
30
30
30
30
F0
F0
ENDCHAR
STARTCHAR 005E
ENCODING 94
SWIDTH 458 0
DWIDTH 11 0
BBX 11 11 0 6
BITMAP
0600
0E00
0F00
1B00
1B80
3180
31C0
60C0
60C0
E060
C060
ENDCHAR
STARTCHAR 005F
ENCODING 95
SWIDTH 541 0
DWIDTH 13 0
BBX 13 1 0 -3
BITMAP
FFF8
ENDCHAR
STARTCHAR 0060
ENCODING 96
SWIDTH 333 0
DWIDTH 8 0
BBX 5 4 1 14
BITMAP
E0
60
30
18
ENDCHAR
STARTCHAR 0061
ENCODING 97
SWIDTH 541 0
DWIDTH 13 0
BBX 11 13 1 0
BITMAP
FFC0
FFE0
0060
0060
3FE0
7FE0
6060
C060
C060
C060
6060
7FE0
3FC0
ENDCHAR
STARTCHAR 0062
ENCODING 98
SWIDTH 541 0
DWIDTH 13 0
BBX 10 17 1 0
BITMAP
C000
C000
C000
C000
FF80
FFC0
E0C0
C0C0
C0C0
C0C0
C0C0
C0C0
C0C0
C0C0
60C0
7FC0
3F80
ENDCHAR
STARTCHAR 0063
ENCODING 99
SWIDTH 458 0
DWIDTH 11 0
BBX 9 13 1 0
BITMAP
3F80
7F80
6000
C000
C000
C000
C000
C000
C000
C000
6000
7F80
3F80
ENDCHAR
STARTCHAR 0064
ENCODING 100
SWIDTH 541 0
DWIDTH 13 0
BBX 10 17 1 0
BITMAP
00C0
00C0
00C0
00C0
3FC0
7FC0
60C0
C0C0
C0C0
C0C0
C0C0
C0C0
C0C0
C0C0
60C0
7FC0
3F80
ENDCHAR
STARTCHAR 0065
ENCODING 101
SWIDTH 541 0
DWIDTH 13 0
BBX 11 13 1 0
BITMAP
3F80
7FC0
60E0
C060
C1E0
C7C0
DF00
F800
E000
C000
6000
7FE0
3FE0
ENDCHAR
STARTCHAR 0066
ENCODING 102
SWIDTH 250 0
DWIDTH 6 0
BBX 4 17 1 0
BITMAP
30
70
60
C0
F0
F0
C0
C0
C0
C0
C0
C0
C0
C0
C0
C0
C0
ENDCHAR
STARTCHAR 0067
ENCODING 103
SWIDTH 541 0
DWIDTH 13 0
BBX 10 17 1 -4
BITMAP
3F80
7FC0
60C0
C0C0
C0C0
C0C0
C0C0
C0C0
C0C0
C0C0
60C0
7FC0
3FC0
00C0
00C0
FFC0
FF80
ENDCHAR
STARTCHAR 0068
ENCODING 104
SWIDTH 541 0
DWIDTH 13 0
BBX 10 17 1 0
BITMAP
C000
C000
C000
C000
FF80
FFC0
E0C0
C0C0
C0C0
C0C0
C0C0
C0C0
C0C0
C0C0
C0C0
C0C0
C0C0
ENDCHAR
STARTCHAR 0069
ENCODING 105
SWIDTH 208 0
DWIDTH 5 0
BBX 3 17 1 0
BITMAP
60
60
00
00
E0
E0
E0
E0
E0
E0
E0
E0
E0
E0
E0
E0
E0
ENDCHAR
STARTCHAR 006A
ENCODING 106
SWIDTH 208 0
DWIDTH 5 0
BBX 5 21 1 -4
BITMAP
18
18
00
00
30
30
30
30
30
30
30
30
30
30
30
30
30
30
30
F0
E0
ENDCHAR
STARTCHAR 006B
ENCODING 107
SWIDTH 541 0
DWIDTH 13 0
BBX 11 17 1 0
BITMAP
E000
E000
E000
E000
E0C0
E180
E380
E700
EE00
FC00
F800
FC00
EE00
E700
E380
E1C0
E0E0
ENDCHAR
STARTCHAR 006C
ENCODING 108
SWIDTH 208 0
DWIDTH 5 0
BBX 2 17 1 0
BITMAP
C0
C0
C0
C0
C0
C0
C0
C0
C0
C0
C0
C0
C0
C0
C0
C0
C0
ENDCHAR
STARTCHAR 006D
ENCODING 109
SWIDTH 708 0
DWIDTH 17 0
BBX 14 13 1 0
BITMAP
3EF8
7FFC
E38C
C30C
C30C
C30C
C30C
C30C
C30C
C30C
C30C
C30C
C30C
ENDCHAR
STARTCHAR 006E
ENCODING 110
SWIDTH 541 0
DWIDTH 13 0
BBX 10 13 1 0
BITMAP
3F80
7FC0
60C0
C0C0
C0C0
C0C0
C0C0
C0C0
C0C0
C0C0
C0C0
C0C0
C0C0
ENDCHAR
STARTCHAR 006F
ENCODING 111
SWIDTH 583 0
DWIDTH 14 0
BBX 11 13 1 0
BITMAP
3FC0
7FE0
E060
C060
C060
C060
C060
C060
C060
C060
6060
7FE0
3FC0
ENDCHAR
STARTCHAR 0070
ENCODING 112
SWIDTH 541 0
DWIDTH 13 0
BBX 11 17 1 -4
BITMAP
3FC0
7FE0
6060
C060
C060
C060
C060
C060
C060
C060
E060
FFE0
FFC0
C000
C000
C000
C000
ENDCHAR
STARTCHAR 0071
ENCODING 113
SWIDTH 541 0
DWIDTH 13 0
BBX 11 17 1 -4
BITMAP
3FC0
7FE0
6060
C060
C060
C060
C060
C060
C060
C060
6060
7FE0
3FE0
0060
0060
0060
0060
ENDCHAR
STARTCHAR 0072
ENCODING 114
SWIDTH 250 0
DWIDTH 6 0
BBX 5 13 1 0
BITMAP
38
78
60
C0
C0
C0
C0
C0
C0
C0
C0
C0
C0
ENDCHAR
STARTCHAR 0073
ENCODING 115
SWIDTH 500 0
DWIDTH 12 0
BBX 9 13 1 0
BITMAP
7F80
FF80
C000
C000
C000
FF00
7F80
0180
0180
0180
0180
FF80
FF00
ENDCHAR
STARTCHAR 0074
ENCODING 116
SWIDTH 250 0
DWIDTH 6 0
BBX 4 17 1 0
BITMAP
C0
C0
C0
C0
F0
F0
C0
C0
C0
C0
C0
C0
C0
C0
C0
C0
C0
ENDCHAR
STARTCHAR 0075
ENCODING 117
SWIDTH 541 0
DWIDTH 13 0
BBX 10 13 1 0
BITMAP
C0C0
C0C0
C0C0
C0C0
C0C0
C0C0
C0C0
C0C0
C0C0
C0C0
60C0
7FC0
3F80
ENDCHAR
STARTCHAR 0076
ENCODING 118
SWIDTH 500 0
DWIDTH 12 0
BBX 12 13 0 0
BITMAP
C030
6070
6060
6060
30E0
30C0
30C0
1980
1980
1D80
0F00
0F00
0600
ENDCHAR
STARTCHAR 0077
ENCODING 119
SWIDTH 708 0
DWIDTH 17 0
BBX 17 13 0 0
BITMAP
C1C180
61C180
61E180
63E300
636300
736300
333300
373600
363600
363600
1E1E00
1C1E00
1C1C00
ENDCHAR
STARTCHAR 0078
ENCODING 120
SWIDTH 500 0
DWIDTH 12 0
BBX 11 13 0 0
BITMAP
60E0
70C0
39C0
1B80
1F00
0F00
0E00
0F00
1F80
3980
30C0
70E0
E060
ENDCHAR
STARTCHAR 0079
ENCODING 121
SWIDTH 541 0
DWIDTH 13 0
BBX 10 17 1 -4
BITMAP
C0C0
C0C0
C0C0
C0C0
C0C0
C0C0
C0C0
C0C0
C0C0
C0C0
60C0
7FC0
3FC0
00C0
00C0
FFC0
FF80
ENDCHAR
STARTCHAR 007A
ENCODING 122
SWIDTH 541 0
DWIDTH 13 0
BBX 11 13 1 0
BITMAP
FFC0
FFE0
00E0
01C0
0380
0700
0E00
1C00
3800
7000
E000
FFE0
FFE0
ENDCHAR
STARTCHAR 007B
ENCODING 123
SWIDTH 291 0
DWIDTH 7 0
BBX 4 22 2 -3
BITMAP
70
F0
C0
C0
C0
C0
C0
C0
C0
C0
C0
C0
C0
C0
C0
C0
C0
C0
C0
C0
F0
70
ENDCHAR
STARTCHAR 007C
ENCODING 124
SWIDTH 208 0
DWIDTH 5 0
BBX 2 17 1 0
BITMAP
C0
C0
C0
C0
C0
C0
C0
C0
C0
C0
C0
C0
C0
C0
C0
C0
C0
ENDCHAR
STARTCHAR 007D
ENCODING 125
SWIDTH 291 0
DWIDTH 7 0
BBX 4 22 1 -3
BITMAP
F0
F0
30
30
30
30
30
30
30
30
10
10
30
30
30
30
30
30
30
30
F0
F0
ENDCHAR
STARTCHAR 007E
ENCODING 126
SWIDTH 541 0
DWIDTH 13 0
BBX 11 4 1 4
BITMAP
3800
7E60
CFC0
0380
ENDCHAR
STARTCHAR 00A0
ENCODING 160
SWIDTH 291 0
DWIDTH 7 0
BBX 0 0 0 0
BITMAP
ENDCHAR
STARTCHAR 00A1
ENCODING 161
SWIDTH 250 0
DWIDTH 6 0
BBX 3 17 2 0
BITMAP
C0
C0
00
00
E0
E0
E0
E0
E0
E0
E0
E0
E0
E0
E0
E0
E0
ENDCHAR
STARTCHAR 00A2
ENCODING 162
SWIDTH 458 0
DWIDTH 11 0
BBX 9 16 1 -2
BITMAP
0C00
3F80
7F80
EC00
CC00
CC00
CC00
CC00
CC00
CC00
CC00
6C00
7F80
3F80
0C00
0C00
ENDCHAR
STARTCHAR 00A3
ENCODING 163
SWIDTH 583 0
DWIDTH 14 0
BBX 13 17 1 0
BITMAP
0F80
1FC0
18E0
1860
1860
1800
1800
1800
FF80
FF80
1800
1800
1818
3018
7038
FFF0
FFE0
ENDCHAR
STARTCHAR 00A4
ENCODING 164
SWIDTH 541 0
DWIDTH 13 0
BBX 11 11 1 2
BITMAP
DF40
FFE0
61C0
C0E0
C060
C060
C060
C0E0
71C0
FFE0
1E40
ENDCHAR
STARTCHAR 00A5
ENCODING 165
SWIDTH 541 0
DWIDTH 13 0
BBX 13 17 0 0
BITMAP
E038
6030
7070
3060
18C0
1DC0
7DF8
7FF8
0700
7FF8
7FF8
0300
0300
0300
0300
0300
0300
ENDCHAR
STARTCHAR 00A6
ENCODING 166
SWIDTH 250 0
DWIDTH 6 0
BBX 2 18 2 0
BITMAP
C0
C0
C0
C0
C0
C0
C0
00
00
00
00
C0
C0
C0
C0
C0
C0
C0
ENDCHAR
STARTCHAR 00A7
ENCODING 167
SWIDTH 541 0
DWIDTH 13 0
BBX 11 22 1 -3
BITMAP
1F00
3FC0
6180
6000
6000
7000
7C00
EF00
C3C0
C0C0
C060
F060
7CC0
1FC0
0780
01C0
00E0
0060
60E0
F0C0
3FC0
1F00
ENDCHAR
STARTCHAR 00A8
ENCODING 168
SWIDTH 416 0
DWIDTH 10 0
BBX 7 2 2 13
BITMAP
C6
C6
ENDCHAR
STARTCHAR 00A9
ENCODING 169
SWIDTH 791 0
DWIDTH 19 0
BBX 17 17 1 0
BITMAP
3FFC00
7FFF00
E00380
C00180
C3E180
C7E180
C60180
C60180
C60180
C60180
C60180
C7E180
C3E180
C00180
E00380
7FFF00
3FFE00
ENDCHAR
STARTCHAR 00AA
ENCODING 170
SWIDTH 375 0
DWIDTH 9 0
BBX 7 11 1 7
BITMAP
7C
FE
8E
0E
F6
CE
FE
F6
00
FE
FE
ENDCHAR
STARTCHAR 00AB
ENCODING 171
SWIDTH 541 0
DWIDTH 13 0
BBX 9 8 2 3
BITMAP
0080
3180
7380
E700
E700
F780
3380
1180
ENDCHAR
STARTCHAR 00AC
ENCODING 172
SWIDTH 583 0
DWIDTH 14 0
BBX 12 6 1 3
BITMAP
FFF0
FFF0
0030
0030
0030
0030
ENDCHAR
STARTCHAR 00AD
ENCODING 173
SWIDTH 583 0
DWIDTH 14 0
BBX 12 2 1 5
BITMAP
FFF0
FFF0
ENDCHAR
STARTCHAR 00AE
ENCODING 174
SWIDTH 791 0
DWIDTH 19 0
BBX 17 17 1 0
BITMAP
3FFC00
7FFF00
E00380
C00180
C7E180
C7F180
C63180
C63180
C7F180
C7E180
C7C180
C6E180
C67180
C00180
E00380
7FFF00
3FFE00
ENDCHAR
STARTCHAR 00AF
ENCODING 175
SWIDTH 458 0
DWIDTH 11 0
BBX 7 1 2 14
BITMAP
FE
ENDCHAR
STARTCHAR 00B0
ENCODING 176
SWIDTH 416 0
DWIDTH 10 0
BBX 7 7 1 10
BITMAP
3C
7E
E6
C6
E6
7E
3C
ENDCHAR
STARTCHAR 00B1
ENCODING 177
SWIDTH 583 0
DWIDTH 14 0
BBX 12 12 1 0
BITMAP
0600
0600
0600
0600
FFF0
FFF0
0600
0600
0600
0600
FFF0
FFF0
ENDCHAR
STARTCHAR 00B4
ENCODING 180
SWIDTH 375 0
DWIDTH 9 0
BBX 4 4 3 13
BITMAP
30
60
C0
80
ENDCHAR
STARTCHAR 00B5
ENCODING 181
SWIDTH 458 0
DWIDTH 11 0
BBX 9 16 1 -6
BITMAP
C180
C180
C180
C180
C180
C180
E180
E180
FF80
FE00
C000
C000
C000
C000
C000
C000
ENDCHAR
STARTCHAR 00B6
ENCODING 182
SWIDTH 541 0
DWIDTH 13 0
BBX 12 21 0 -4
BITMAP
1FF0
3FF0
7E30
FE30
FE30
7E30
7E30
3E30
1E30
0630
0630
0630
0630
0630
0630
0630
0630
0630
0630
0630
0630
ENDCHAR
STARTCHAR 00B7
ENCODING 183
SWIDTH 250 0
DWIDTH 6 0
BBX 2 3 2 5
BITMAP
40
C0
40
ENDCHAR
STARTCHAR 00B8
ENCODING 184
SWIDTH 416 0
DWIDTH 10 0
BBX 3 4 4 -4
BITMAP
60
60
C0
80
ENDCHAR
STARTCHAR 00BA
ENCODING 186
SWIDTH 375 0
DWIDTH 9 0
BBX 8 11 1 7
BITMAP
7C
FE
C6
C3
C3
C6
FE
7C
00
FE
FE
ENDCHAR
STARTCHAR 00BB
ENCODING 187
SWIDTH 541 0
DWIDTH 13 0
BBX 9 9 2 3
BITMAP
8400
C600
F700
3380
7180
F780
E600
C400
8000
ENDCHAR
STARTCHAR 00BF
ENCODING 191
SWIDTH 500 0
DWIDTH 12 0
BBX 11 17 0 0
BITMAP
0080
0080
0000
0000
0380
0380
0380
0380
3F80
7F00
E000
E000
E000
E000
6000
7FE0
3FE0
ENDCHAR
STARTCHAR 00C0
ENCODING 192
SWIDTH 625 0
DWIDTH 15 0
BBX 15 24 0 0
BITMAP
0400
0E00
0600
0100
0000
0000
0000
0300
0780
07C0
06C0
0EC0
0C60
0C60
1860
1830
1830
3030
3FF8
7FF8
601C
600C
C00C
C00E
ENDCHAR
STARTCHAR 00C1
ENCODING 193
SWIDTH 625 0
DWIDTH 15 0
BBX 15 23 0 1
BITMAP
0060
00C0
0180
0300
0000
0000
0380
0380
06C0
06C0
06C0
0C60
0C60
1C70
1830
1830
3818
3FF8
3FF8
600C
600C
600C
C006
ENDCHAR
STARTCHAR 00C2
ENCODING 194
SWIDTH 625 0
DWIDTH 15 0
BBX 15 23 0 0
BITMAP
0100
0380
06C0
0440
0000
0000
0380
0380
06C0
06C0
06C0
0C60
0C60
1C70
1830
1830
3818
3FF8
3FF8
600C
600C
600C
C006
ENDCHAR
STARTCHAR 00C3
ENCODING 195
SWIDTH 625 0
DWIDTH 15 0
BBX 15 22 0 1
BITMAP
07F0
0FE0
0000
0000
0000
0380
0380
06C0
06C0
06C0
0C60
0C60
1C70
1830
1830
3818
3FF8
3FF8
600C
600C
600C
C006
ENDCHAR
STARTCHAR 00C4
ENCODING 196
SWIDTH 625 0
DWIDTH 15 0
BBX 15 22 0 0
BITMAP
0C60
0C60
0000
0000
0000
0380
0380
06C0
06C0
06C0
0C60
0C60
1C70
1830
1830
3818
3FF8
3FF8
600C
600C
600C
C006
ENDCHAR
STARTCHAR 00C5
ENCODING 197
SWIDTH 625 0
DWIDTH 15 0
BBX 15 23 0 0
BITMAP
0180
03C0
02C0
0180
0000
0000
0380
0380
06C0
06C0
06C0
0C60
0C60
1C70
1830
1830
3818
3FF8
3FF8
600C
600C
600C
C006
ENDCHAR
STARTCHAR 00C6
ENCODING 198
SWIDTH 916 0
DWIDTH 22 0
BBX 22 17 0 0
BITMAP
007FC0
007FC0
007000
00F000
00F000
01B000
039800
031FF0
061FF0
0E1C00
0C0C00
1FFC00
1FFC00
300600
700600
6007FC
E007FC
ENDCHAR
STARTCHAR 00C7
ENCODING 199
SWIDTH 708 0
DWIDTH 17 0
BBX 15 23 1 -5
BITMAP
07E0
1FF8
383C
700C
600E
6006
C000
C000
C000
C000
C000
C000
E006
600E
700E
383C
1FF8
0FF0
0100
0380
00C0
03C0
0780
ENDCHAR
STARTCHAR 00C8
ENCODING 200
SWIDTH 583 0
DWIDTH 14 0
BBX 12 24 1 0
BITMAP
0400
0600
0300
0180
0000
0000
0000
3FF0
7FF0
6000
E000
C000
C000
C000
C000
FFE0
FFE0
C000
C000
C000
4000
6000
7FE0
3FE0
ENDCHAR
STARTCHAR 00C9
ENCODING 201
SWIDTH 583 0
DWIDTH 14 0
BBX 11 23 1 1
BITMAP
00C0
0180
0300
0600
0000
0000
3FE0
7FE0
E000
C000
C000
C000
C000
FFE0
FFE0
C000
C000
C000
C000
C000
E000
7FE0
3FE0
ENDCHAR
STARTCHAR 00CA
ENCODING 202
SWIDTH 583 0
DWIDTH 14 0
BBX 11 23 1 0
BITMAP
0200
0700
0D80
0880
0000
0000
3FE0
7FE0
E000
C000
C000
C000
C000
FFE0
FFE0
C000
C000
C000
C000
C000
E000
7FE0
3FE0
ENDCHAR
STARTCHAR 00CB
ENCODING 203
SWIDTH 583 0
DWIDTH 14 0
BBX 11 22 1 0
BITMAP
0C60
0C60
0000
0000
0000
3FE0
7FE0
E000
C000
C000
C000
C000
FFE0
FFE0
C000
C000
C000
C000
C000
E000
7FE0
3FE0
ENDCHAR
STARTCHAR 00CC
ENCODING 204
SWIDTH 291 0
DWIDTH 7 0
BBX 5 24 1 0
BITMAP
40
E0
30
18
00
00
00
18
18
18
18
18
18
18
18
18
18
18
18
18
18
18
18
18
ENDCHAR
STARTCHAR 00CD
ENCODING 205
SWIDTH 291 0
DWIDTH 7 0
BBX 5 23 1 1
BITMAP
18
30
60
C0
00
00
C0
C0
C0
C0
C0
C0
C0
C0
C0
C0
C0
C0
C0
C0
C0
C0
C0
ENDCHAR
STARTCHAR 00CE
ENCODING 206
SWIDTH 291 0
DWIDTH 7 0
BBX 5 24 0 0
BITMAP
20
70
D8
88
00
00
00
60
60
60
60
60
60
60
60
60
60
60
60
60
60
60
60
60
ENDCHAR
STARTCHAR 00CF
ENCODING 207
SWIDTH 291 0
DWIDTH 7 0
BBX 7 22 0 0
BITMAP
C6
C6
00
00
00
60
60
60
60
60
60
60
60
60
60
60
60
60
60
60
60
60
ENDCHAR
STARTCHAR 00D0
ENCODING 208
SWIDTH 708 0
DWIDTH 17 0
BBX 16 17 0 0
BITMAP
3FF0
3FF8
301C
300E
3006
3003
3003
FF83
FF83
3003
3003
3003
3006
300E
301C
3FF8
3FF0
ENDCHAR
STARTCHAR 00D1
ENCODING 209
SWIDTH 625 0
DWIDTH 15 0
BBX 12 22 1 0
BITMAP
1FC0
3F80
0000
0000
0000
6030
E030
F030
F030
D830
D830
DC30
CC30
CC30
C630
C630
C330
C330
C1B0
C1B0
C0F0
C0E0
ENDCHAR
STARTCHAR 00D2
ENCODING 210
SWIDTH 625 0
DWIDTH 15 0
BBX 12 24 1 0
BITMAP
0400
0600
0300
0180
0000
0000
0000
1FC0
7FF0
6030
6030
C030
C030
C030
C030
C030
C030
C030
C030
C030
6030
6030
3FF0
1FC0
ENDCHAR
STARTCHAR 00D3
ENCODING 211
SWIDTH 625 0
DWIDTH 15 0
BBX 12 21 1 1
BITMAP
0060
00C0
0180
0300
3FC0
7FE0
E070
C030
C030
C030
C030
C030
C030
C030
C030
C030
C030
C030
6070
7FE0
1FC0
ENDCHAR
STARTCHAR 00D4
ENCODING 212
SWIDTH 625 0
DWIDTH 15 0
BBX 12 23 1 0
BITMAP
0200
0700
0D80
0880
0000
0000
3FC0
7FE0
E070
C030
C030
C030
C030
C030
C030
C030
C030
C030
C030
C030
6070
7FE0
1FC0
ENDCHAR
STARTCHAR 00D5
ENCODING 213
SWIDTH 625 0
DWIDTH 15 0
BBX 12 22 1 1
BITMAP
0FE0
1FC0
0000
0000
0000
3FC0
7FE0
E070
C030
C030
C030
C030
C030
C030
C030
C030
C030
C030
C030
6070
7FE0
1FC0
ENDCHAR
STARTCHAR 00D6
ENCODING 214
SWIDTH 625 0
DWIDTH 15 0
BBX 12 22 1 0
BITMAP
18C0
18C0
0000
0000
0000
3FC0
7FE0
E070
C030
C030
C030
C030
C030
C030
C030
C030
C030
C030
C030
6070
7FE0
1FC0
ENDCHAR
STARTCHAR 00D7
ENCODING 215
SWIDTH 583 0
DWIDTH 14 0
BBX 12 12 1 0
BITMAP
4020
E070
70E0
39C0
1F80
0F00
0F00
1F80
39C0
70E0
E070
4020
ENDCHAR
STARTCHAR 00D8
ENCODING 216
SWIDTH 791 0
DWIDTH 19 0
BBX 18 18 0 1
BITMAP
03F080
0FFD80
1C1F80
380700
300F80
601D80
6039C0
6070C0
60E0C0
61C0C0
6380C0
6700C0
6E0180
3C0180
380300
7E0F00
EFFE00
C3F000
ENDCHAR
STARTCHAR 00D9
ENCODING 217
SWIDTH 625 0
DWIDTH 15 0
BBX 12 24 1 0
BITMAP
0400
0E00
0600
0300
0000
0000
0000
C030
C030
C030
C030
C030
C030
C030
C030
C030
C030
C030
C030
C030
E030
6030
7FF0
3FC0
ENDCHAR
STARTCHAR 00DA
ENCODING 218
SWIDTH 625 0
DWIDTH 15 0
BBX 12 21 1 1
BITMAP
0060
00C0
0180
0300
C030
C030
C030
C030
C030
C030
C030
C030
C030
C030
C030
C030
C030
C030
E030
7FE0
3FC0
ENDCHAR
STARTCHAR 00DB
ENCODING 219
SWIDTH 625 0
DWIDTH 15 0
BBX 12 23 1 0
BITMAP
0400
0E00
1B00
1100
0000
0000
C030
C030
C030
C030
C030
C030
C030
C030
C030
C030
C030
C030
C030
C030
E030
7FE0
3FC0
ENDCHAR
STARTCHAR 00DC
ENCODING 220
SWIDTH 625 0
DWIDTH 15 0
BBX 12 22 1 0
BITMAP
18C0
18C0
0000
0000
0000
C030
C030
C030
C030
C030
C030
C030
C030
C030
C030
C030
C030
C030
C030
E030
7FE0
3FC0
ENDCHAR
STARTCHAR 00DD
ENCODING 221
SWIDTH 583 0
DWIDTH 14 0
BBX 14 23 0 1
BITMAP
0060
00C0
0180
0300
0000
0000
E00C
601C
3038
3030
1870
1CE0
0CC0
07C0
0780
0300
0300
0300
0300
0300
0300
0300
0300
ENDCHAR
STARTCHAR 00DE
ENCODING 222
SWIDTH 666 0
DWIDTH 16 0
BBX 13 17 2 0
BITMAP
C000
C000
C000
FFC0
FFF0
C030
C018
C018
C018
C018
C030
FFF0
FFC0
C000
C000
C000
C000
ENDCHAR
STARTCHAR 00DF
ENCODING 223
SWIDTH 541 0
DWIDTH 13 0
BBX 12 20 1 -1
BITMAP
1F00
3F80
71C0
60C0
6060
60E0
60C0
63C0
6780
E7C0
E0E0
6060
6060
6030
6070
6060
60E0
61C0
6780
6700
ENDCHAR
STARTCHAR 00E0
ENCODING 224
SWIDTH 541 0
DWIDTH 13 0
BBX 11 18 1 0
BITMAP
1800
1C00
0600
0200
0000
FFC0
FFE0
0060
0060
3FE0
7FE0
6060
C060
C060
C060
6060
7FE0
3FC0
ENDCHAR
STARTCHAR 00E1
ENCODING 225
SWIDTH 541 0
DWIDTH 13 0
BBX 11 18 1 1
BITMAP
0180
0300
0600
0C00
0000
FFC0
FFE0
0060
0060
3FE0
7FE0
C060
C060
C060
C060
C060
7FC0
3F80
ENDCHAR
STARTCHAR 00E2
ENCODING 226
SWIDTH 541 0
DWIDTH 13 0
BBX 11 18 1 0
BITMAP
0400
0E00
1B00
1100
0000
FFC0
FFE0
0060
0060
3FE0
7FE0
C060
C060
C060
C060
C060
7FC0
3F80
ENDCHAR
STARTCHAR 00E3
ENCODING 227
SWIDTH 541 0
DWIDTH 13 0
BBX 11 17 1 1
BITMAP
1FC0
3F80
0000
0000
FFC0
FFE0
0060
0060
3FE0
7FE0
C060
C060
C060
C060
C060
7FC0
3F80
ENDCHAR
STARTCHAR 00E4
ENCODING 228
SWIDTH 541 0
DWIDTH 13 0
BBX 11 17 1 0
BITMAP
3180
3180
0000
0000
FFC0
FFE0
0060
0060
3FE0
7FE0
C060
C060
C060
C060
C060
7FC0
3F80
ENDCHAR
STARTCHAR 00E5
ENCODING 229
SWIDTH 541 0
DWIDTH 13 0
BBX 11 18 1 0
BITMAP
0600
0F00
0B00
0600
0000
FFC0
FFE0
0060
0060
3FE0
7FE0
C060
C060
C060
C060
C060
7FC0
3F80
ENDCHAR
STARTCHAR 00E6
ENCODING 230
SWIDTH 875 0
DWIDTH 21 0
BBX 19 13 1 0
BITMAP
1F0F00
7FBF80
61F1C0
60E0E0
00C060
07C060
7FFFE0
F0FFE0
C0C000
C0C060
C3E0E0
FF7FC0
3E1F00
ENDCHAR
STARTCHAR 00E7
ENCODING 231
SWIDTH 500 0
DWIDTH 12 0
BBX 10 18 1 -5
BITMAP
1F00
3F80
61C0
C0C0
C0C0
C000
C000
C000
C000
C0C0
E1C0
7F80
3F00
0800
1E00
0300
1F00
3E00
ENDCHAR
STARTCHAR 00E8
ENCODING 232
SWIDTH 541 0
DWIDTH 13 0
BBX 11 18 1 0
BITMAP
1800
1C00
0600
0200
0000
3F80
7FC0
60E0
C060
C1E0
C7C0
DF00
F800
E000
C000
6000
7FE0
3FE0
ENDCHAR
STARTCHAR 00E9
ENCODING 233
SWIDTH 541 0
DWIDTH 13 0
BBX 10 18 1 1
BITMAP
0180
0300
0600
0C00
0000
3F80
7FC0
C0C0
C0C0
C1C0
CF80
FE00
F800
E000
C000
C000
7FC0
3FC0
ENDCHAR
STARTCHAR 00EA
ENCODING 234
SWIDTH 541 0
DWIDTH 13 0
BBX 10 18 1 0
BITMAP
0400
0E00
1B00
1100
0000
3F80
7FC0
C0C0
C0C0
C1C0
CF80
FE00
F800
E000
C000
C000
7FC0
3FC0
ENDCHAR
STARTCHAR 00EB
ENCODING 235
SWIDTH 541 0
DWIDTH 13 0
BBX 10 17 1 0
BITMAP
3180
3180
0000
0000
3F80
7FC0
C0C0
C0C0
C1C0
CF80
FE00
F800
E000
C000
C000
7FC0
3FC0
ENDCHAR
STARTCHAR 00EC
ENCODING 236
SWIDTH 291 0
DWIDTH 7 0
BBX 5 19 1 0
BITMAP
40
E0
70
18
00
00
00
00
00
18
18
18
18
18
18
18
18
18
18
ENDCHAR
STARTCHAR 00ED
ENCODING 237
SWIDTH 291 0
DWIDTH 7 0
BBX 6 18 1 1
BITMAP
0C
18
30
60
00
00
00
00
C0
C0
C0
C0
C0
C0
C0
C0
C0
C0
ENDCHAR
STARTCHAR 00EE
ENCODING 238
SWIDTH 291 0
DWIDTH 7 0
BBX 5 18 0 0
BITMAP
20
70
D8
88
00
00
00
00
60
60
60
60
60
60
60
60
60
60
ENDCHAR
STARTCHAR 00EF
ENCODING 239
SWIDTH 291 0
DWIDTH 7 0
BBX 7 17 0 0
BITMAP
C6
C6
00
00
00
00
00
60
60
60
60
60
60
60
60
60
60
ENDCHAR
STARTCHAR 00F0
ENCODING 240
SWIDTH 541 0
DWIDTH 13 0
BBX 12 18 1 0
BITMAP
08C0
1FE0
0F80
3B80
01C0
1EC0
3FE0
70E0
E070
C070
C030
C030
C030
C070
E060
70E0
3FC0
1F00
ENDCHAR
STARTCHAR 00F1
ENCODING 241
SWIDTH 541 0
DWIDTH 13 0
BBX 10 17 1 1
BITMAP
1FC0
3F80
0000
0000
7F80
FFC0
C0C0
C0C0
C0C0
C0C0
C0C0
C0C0
C0C0
C0C0
C0C0
C0C0
C0C0
ENDCHAR
STARTCHAR 00F2
ENCODING 242
SWIDTH 541 0
DWIDTH 13 0
BBX 11 18 1 0
BITMAP
1800
1C00
0600
0200
0000
3FC0
7FE0
E060
C060
C060
C060
C060
C060
C060
C060
6060
7FE0
3FC0
ENDCHAR
STARTCHAR 00F3
ENCODING 243
SWIDTH 541 0
DWIDTH 13 0
BBX 11 18 1 1
BITMAP
0180
0300
0600
0C00
0000
7F80
FFE0
C060
C060
C060
C060
C060
C060
C060
C060
C060
7FC0
3F80
ENDCHAR
STARTCHAR 00F4
ENCODING 244
SWIDTH 541 0
DWIDTH 13 0
BBX 11 18 1 0
BITMAP
0400
0E00
1B00
1100
0000
7F80
FFE0
C060
C060
C060
C060
C060
C060
C060
C060
C060
7FC0
3F80
ENDCHAR
STARTCHAR 00F5
ENCODING 245
SWIDTH 541 0
DWIDTH 13 0
BBX 11 17 1 1
BITMAP
1FC0
3F80
0000
0000
7F80
FFE0
C060
C060
C060
C060
C060
C060
C060
C060
C060
7FC0
3F80
ENDCHAR
STARTCHAR 00F6
ENCODING 246
SWIDTH 541 0
DWIDTH 13 0
BBX 11 17 1 0
BITMAP
18C0
18C0
0000
0000
7F80
FFE0
C060
C060
C060
C060
C060
C060
C060
C060
C060
7FC0
3F80
ENDCHAR
STARTCHAR 00F7
ENCODING 247
SWIDTH 666 0
DWIDTH 16 0
BBX 13 11 1 3
BITMAP
0600
0600
0000
0000
0000
FFF8
FFF8
0000
0000
0600
0600
ENDCHAR
STARTCHAR 00F8
ENCODING 248
SWIDTH 625 0
DWIDTH 15 0
BBX 13 14 0 -1
BITMAP
0F88
1FD8
30F8
60F0
61B0
63B8
6718
6E18
7C38
7830
3070
7FE0
EF80
4000
ENDCHAR
STARTCHAR 00F9
ENCODING 249
SWIDTH 541 0
DWIDTH 13 0
BBX 10 18 1 0
BITMAP
1800
1C00
0600
0200
0000
C0C0
C0C0
C0C0
C0C0
C0C0
C0C0
C0C0
C0C0
C0C0
C0C0
60C0
7FC0
3F80
ENDCHAR
STARTCHAR 00FA
ENCODING 250
SWIDTH 541 0
DWIDTH 13 0
BBX 10 18 1 1
BITMAP
0180
0300
0600
0C00
0000
C0C0
C0C0
C0C0
C0C0
C0C0
C0C0
C0C0
C0C0
C0C0
C0C0
C0C0
FFC0
7F80
ENDCHAR
STARTCHAR 00FB
ENCODING 251
SWIDTH 541 0
DWIDTH 13 0
BBX 10 18 1 0
BITMAP
0400
0E00
1B00
1100
0000
C0C0
C0C0
C0C0
C0C0
C0C0
C0C0
C0C0
C0C0
C0C0
C0C0
C0C0
FFC0
7F80
ENDCHAR
STARTCHAR 00FC
ENCODING 252
SWIDTH 541 0
DWIDTH 13 0
BBX 10 16 1 0
BITMAP
3180
3180
0000
C0C0
C0C0
C0C0
C0C0
C0C0
C0C0
C0C0
C0C0
C0C0
C0C0
C0C0
FFC0
7F80
ENDCHAR
STARTCHAR 00FD
ENCODING 253
SWIDTH 541 0
DWIDTH 13 0
BBX 10 22 1 -3
BITMAP
0180
0300
0600
0C00
0000
C0C0
C0C0
C0C0
C0C0
C0C0
C0C0
C0C0
C0C0
C0C0
C0C0
C0C0
FFC0
7FC0
00C0
00C0
FFC0
FF80
ENDCHAR
STARTCHAR 00FE
ENCODING 254
SWIDTH 541 0
DWIDTH 13 0
BBX 11 22 1 -5
BITMAP
C000
C000
C000
C000
CF00
DFC0
F0C0
E060
E060
C060
C060
C060
E060
E060
F0C0
FFC0
DF00
C000
C000
C000
C000
C000
ENDCHAR
STARTCHAR 00FF
ENCODING 255
SWIDTH 583 0
DWIDTH 14 0
BBX 10 21 1 -4
BITMAP
18C0
18C0
0000
0000
C0C0
C0C0
C0C0
C0C0
C0C0
C0C0
C0C0
C0C0
C0C0
C0C0
C0C0
FFC0
7FC0
00C0
00C0
FFC0
FF80
ENDCHAR
STARTCHAR 0131
ENCODING 305
SWIDTH 208 0
DWIDTH 5 0
BBX 2 10 1 0
BITMAP
C0
C0
C0
C0
C0
C0
C0
C0
C0
C0
ENDCHAR
STARTCHAR 0141
ENCODING 321
SWIDTH 541 0
DWIDTH 13 0
BBX 14 17 0 0
BITMAP
1800
1800
1800
1800
1800
1B00
1F00
1E00
F800
F800
9800
1800
1800
1800
1800
1FFC
1FFC
ENDCHAR
STARTCHAR 0142
ENCODING 322
SWIDTH 208 0
DWIDTH 5 0
BBX 6 17 0 0
BITMAP
30
30
30
30
30
34
3C
78
F0
F0
30
30
30
30
30
30
30
ENDCHAR
STARTCHAR 0152
ENCODING 338
SWIDTH 1000 0
DWIDTH 24 0
BBX 22 18 1 0
BITMAP
0FC000
1FEFFC
383FFC
701C00
600C00
C00C00
C00C00
C00C00
C00FFC
C00FFC
C00C00
C00C00
C00C00
600C00
601C00
383C00
1FFFFC
0FDFFC
ENDCHAR
STARTCHAR 0153
ENCODING 339
SWIDTH 958 0
DWIDTH 23 0
BBX 21 13 1 0
BITMAP
1F07C0
3F9FE0
70FC70
E07830
C07030
C03030
C03FF8
C03FF8
C03000
E07030
70F870
3FDFE0
1F0FC0
ENDCHAR
STARTCHAR 0160
ENCODING 352
SWIDTH 541 0
DWIDTH 13 0
BBX 11 23 1 1
BITMAP
1980
7FE0
1FC0
0700
0000
0000
3FE0
7FE0
C000
C000
C000
C000
C000
7F80
3FC0
00E0
0060
0060
0060
0060
00E0
FFC0
FF80
ENDCHAR
STARTCHAR 0161
ENCODING 353
SWIDTH 500 0
DWIDTH 12 0
BBX 10 18 1 1
BITMAP
3300
FFC0
3F80
0E00
0000
7F80
FF80
C000
C000
C000
FF00
7F80
0180
0180
0180
0180
FF80
FF00
ENDCHAR
STARTCHAR 0178
ENCODING 376
SWIDTH 583 0
DWIDTH 14 0
BBX 14 22 0 0
BITMAP
0C60
0C60
0000
0000
0000
E00C
601C
3038
3030
1870
1CE0
0CC0
07C0
0780
0300
0300
0300
0300
0300
0300
0300
0300
ENDCHAR
STARTCHAR 017D
ENCODING 381
SWIDTH 541 0
DWIDTH 13 0
BBX 12 23 0 1
BITMAP
0CC0
3FF0
0FE0
0380
0000
0000
FFC0
FFE0
00E0
01C0
0180
0300
0700
0E00
0C00
1C00
3800
3000
7000
E000
C000
FFE0
7FE0
ENDCHAR
STARTCHAR 017E
ENCODING 382
SWIDTH 541 0
DWIDTH 13 0
BBX 11 18 1 1
BITMAP
1980
7FE0
1FC0
0700
0000
FFE0
FFE0
00E0
01C0
0380
0700
0E00
1C00
3800
7000
E000
FFE0
FFE0
ENDCHAR
STARTCHAR 0192
ENCODING 402
SWIDTH 541 0
DWIDTH 13 0
BBX 12 23 0 -5
BITMAP
0070
01F0
0180
0180
0300
0300
0300
1FE0
1FE0
0600
0600
0600
0600
0E00
0E00
0C00
0C00
0C00
0C00
1800
1800
F000
E000
ENDCHAR
STARTCHAR 02C6
ENCODING 710
SWIDTH 416 0
DWIDTH 10 0
BBX 6 4 3 11
BITMAP
30
78
EC
C4
ENDCHAR
STARTCHAR 02C7
ENCODING 711
SWIDTH 333 0
DWIDTH 8 0
BBX 10 4 -1 12
BITMAP
3300
FFC0
3F80
0E00
ENDCHAR
STARTCHAR 02C9
ENCODING 713
SWIDTH 458 0
DWIDTH 11 0
BBX 7 1 2 14
BITMAP
FE
ENDCHAR
STARTCHAR 02D8
ENCODING 728
SWIDTH 500 0
DWIDTH 12 0
BBX 6 2 3 13
BITMAP
FC
78
ENDCHAR
STARTCHAR 02D9
ENCODING 729
SWIDTH 416 0
DWIDTH 10 0
BBX 2 2 5 13
BITMAP
C0
C0
ENDCHAR
STARTCHAR 02DA
ENCODING 730
SWIDTH 458 0
DWIDTH 11 0
BBX 4 4 4 12
BITMAP
E0
F0
B0
E0
ENDCHAR
STARTCHAR 02DB
ENCODING 731
SWIDTH 208 0
DWIDTH 5 0
BBX 4 5 0 -5
BITMAP
60
40
C0
F0
70
ENDCHAR
STARTCHAR 02DC
ENCODING 732
SWIDTH 500 0
DWIDTH 12 0
BBX 8 2 2 13
BITMAP
7F
FE
ENDCHAR
STARTCHAR 02DD
ENCODING 733
SWIDTH 541 0
DWIDTH 13 0
BBX 8 4 3 13
BITMAP
23
66
CC
88
ENDCHAR
STARTCHAR 0394
ENCODING 916
SWIDTH 625 0
DWIDTH 15 0
BBX 15 16 0 1
BITMAP
0180
0180
03C0
03C0
03C0
0660
0660
0C70
0C30
1830
1818
3018
300C
700C
7FFE
FFFE
ENDCHAR
STARTCHAR 03A9
ENCODING 937
SWIDTH 791 0
DWIDTH 19 0
BBX 16 17 2 0
BITMAP
07E0
1818
300C
6006
C006
C003
C003
C003
C003
C002
6006
600C
3018
0C71
DE7F
FE7F
FE7F
ENDCHAR
STARTCHAR 03BC
ENCODING 956
SWIDTH 458 0
DWIDTH 11 0
BBX 9 16 1 -6
BITMAP
C180
C180
C180
C180
C180
C180
E180
E180
FF80
FE00
C000
C000
C000
C000
C000
C000
ENDCHAR
STARTCHAR 03C0
ENCODING 960
SWIDTH 583 0
DWIDTH 14 0
BBX 13 12 0 0
BITMAP
3FF8
7FF8
4CC0
8880
0880
0980
1980
1980
1980
39C8
70F8
3070
ENDCHAR
STARTCHAR 2010
ENCODING 8208
SWIDTH 333 0
DWIDTH 8 0
BBX 6 3 1 5
BITMAP
FC
FC
E0
ENDCHAR
STARTCHAR 2013
ENCODING 8211
SWIDTH 625 0
DWIDTH 15 0
BBX 13 3 1 7
BITMAP
FFF8
FFF8
FFF8
ENDCHAR
STARTCHAR 2014
ENCODING 8212
SWIDTH 500 0
DWIDTH 12 0
BBX 10 3 1 5
BITMAP
FFC0
FFC0
FFC0
ENDCHAR
STARTCHAR 2018
ENCODING 8216
SWIDTH 166 0
DWIDTH 4 0
BBX 2 5 2 12
BITMAP
80
80
80
C0
80
ENDCHAR
STARTCHAR 2019
ENCODING 8217
SWIDTH 166 0
DWIDTH 4 0
BBX 2 6 1 11
BITMAP
80
C0
C0
80
80
80
ENDCHAR
STARTCHAR 201A
ENCODING 8218
SWIDTH 250 0
DWIDTH 6 0
BBX 2 6 2 -3
BITMAP
C0
C0
C0
C0
C0
80
ENDCHAR
STARTCHAR 201C
ENCODING 8220
SWIDTH 333 0
DWIDTH 8 0
BBX 6 5 1 12
BITMAP
4C
C8
D8
DC
9C
ENDCHAR
STARTCHAR 201D
ENCODING 8221
SWIDTH 333 0
DWIDTH 8 0
BBX 6 6 1 11
BITMAP
C8
EC
EC
4C
C8
D8
ENDCHAR
STARTCHAR 201E
ENCODING 8222
SWIDTH 375 0
DWIDTH 9 0
BBX 7 6 1 -3
BITMAP
C6
C6
C6
C6
46
44
ENDCHAR
STARTCHAR 2020
ENCODING 8224
SWIDTH 541 0
DWIDTH 13 0
BBX 12 21 1 -4
BITMAP
0600
0600
0600
0600
0600
FFF0
FFF0
0600
0600
0600
0600
0600
0600
0600
0600
0600
0600
0600
0600
0600
0600
ENDCHAR
STARTCHAR 2021
ENCODING 8225
SWIDTH 541 0
DWIDTH 13 0
BBX 12 21 1 -4
BITMAP
0600
0600
0600
0600
0600
FFF0
FFF0
0600
0600
0600
0600
0600
0600
0600
FFF0
FFF0
0600
0600
0600
0600
0600
ENDCHAR
STARTCHAR 2022
ENCODING 8226
SWIDTH 333 0
DWIDTH 8 0
BBX 6 7 1 5
BITMAP
38
7C
FC
FC
FC
7C
38
ENDCHAR
STARTCHAR 2026
ENCODING 8230
SWIDTH 708 0
DWIDTH 17 0
BBX 13 2 2 0
BITMAP
8208
8208
ENDCHAR
STARTCHAR 2030
ENCODING 8240
SWIDTH 1000 0
DWIDTH 24 0
BBX 24 17 0 0
BITMAP
3C1C00
7E1800
E73800
C33000
C37000
E76000
7EC000
3DC000
018000
03F83C
03FC7E
07CEE7
0786C3
0D86C3
0DCEE7
18FC7E
38783C
ENDCHAR
STARTCHAR 2039
ENCODING 8249
SWIDTH 333 0
DWIDTH 8 0
BBX 4 8 2 3
BITMAP
10
30
70
E0
C0
F0
30
10
ENDCHAR
STARTCHAR 203A
ENCODING 8250
SWIDTH 333 0
DWIDTH 8 0
BBX 4 8 2 3
BITMAP
80
C0
E0
70
30
F0
C0
80
ENDCHAR
STARTCHAR 2044
ENCODING 8260
SWIDTH 166 0
DWIDTH 4 0
BBX 12 17 -4 -1
BITMAP
0020
0070
0060
00C0
01C0
0180
0380
0300
0700
0600
0C00
1C00
1800
3800
3000
6000
E000
ENDCHAR
STARTCHAR 2122
ENCODING 8482
SWIDTH 875 0
DWIDTH 21 0
BBX 19 11 1 6
BITMAP
FF40E0
FF60E0
1861E0
1871E0
1871E0
187BE0
187B60
187F60
186F60
186E60
186660
ENDCHAR
STARTCHAR 2126
ENCODING 8486
SWIDTH 791 0
DWIDTH 19 0
BBX 16 17 2 0
BITMAP
07E0
1818
300C
6006
C006
C003
C003
C003
C003
C002
6006
600C
3018
0C71
DE7F
FE7F
FE7F
ENDCHAR
STARTCHAR 2202
ENCODING 8706
SWIDTH 500 0
DWIDTH 12 0
BBX 11 20 1 -1
BITMAP
7C00
7F00
0380
0180
00C0
00C0
0040
0060
0060
1E60
7FE0
71E0
E0C0
C0C0
C0C0
C1C0
C180
C380
6300
3E00
ENDCHAR
STARTCHAR 2206
ENCODING 8710
SWIDTH 625 0
DWIDTH 15 0
BBX 15 16 0 1
BITMAP
0180
0180
03C0
03C0
03C0
0660
0660
0C70
0C30
1830
1818
3018
300C
700C
7FFE
FFFE
ENDCHAR
STARTCHAR 220F
ENCODING 8719
SWIDTH 875 0
DWIDTH 21 0
BBX 19 22 1 -3
BITMAP
FFFFE0
7FFF80
300180
300180
300180
300180
300180
300180
300180
300180
300180
300180
300180
300180
300180
300180
300180
300180
300180
300180
700380
FC07E0
ENDCHAR
STARTCHAR 2211
ENCODING 8721
SWIDTH 750 0
DWIDTH 18 0
BBX 18 22 0 -3
BITMAP
3FFF00
3FFF00
1C0100
0E0100
060000
030000
038000
01C000
00E000
006000
007000
006000
00C000
01C000
038000
070000
0E0040
1C0040
180080
3FFF80
7FFF80
800080
ENDCHAR
STARTCHAR 2212
ENCODING 8722
SWIDTH 583 0
DWIDTH 14 0
BBX 12 2 1 5
BITMAP
FFF0
FFF0
ENDCHAR
STARTCHAR 2219
ENCODING 8729
SWIDTH 250 0
DWIDTH 6 0
BBX 2 3 2 5
BITMAP
40
C0
40
ENDCHAR
STARTCHAR 221A
ENCODING 8730
SWIDTH 583 0
DWIDTH 14 0
BBX 12 23 1 0
BITMAP
0010
0010
0020
0020
0020
0020
0020
0020
0020
0040
3040
F840
1840
1C40
0C40
0E80
0E80
0780
0780
0380
0380
0180
0100
ENDCHAR
STARTCHAR 221E
ENCODING 8734
SWIDTH 750 0
DWIDTH 18 0
BBX 17 7 1 3
BITMAP
781E00
FE7F00
C7E300
C3C180
C3C300
FE7F00
781E00
ENDCHAR
STARTCHAR 222B
ENCODING 8747
SWIDTH 291 0
DWIDTH 7 0
BBX 7 26 0 -3
BITMAP
0E
0E
10
10
10
18
18
18
18
18
18
18
18
18
18
18
18
18
18
18
18
10
10
10
F0
E0
ENDCHAR
STARTCHAR 2248
ENCODING 8776
SWIDTH 583 0
DWIDTH 14 0
BBX 12 7 1 3
BITMAP
7810
FF30
87E0
78E0
FF30
CFF0
81C0
ENDCHAR
STARTCHAR 2260
ENCODING 8800
SWIDTH 583 0
DWIDTH 14 0
BBX 13 15 0 -2
BITMAP
0020
0060
0060
00C0
FFF8
FFF8
0380
0300
0700
FFF8
FFF8
0C00
1C00
1800
1000
ENDCHAR
STARTCHAR 2264
ENCODING 8804
SWIDTH 583 0
DWIDTH 14 0
BBX 12 16 1 0
BITMAP
0010
0070
01F0
0780
3E00
F800
E000
F800
3E00
0F80
01E0
0070
0010
0000
FFF0
FFF0
ENDCHAR
STARTCHAR 2265
ENCODING 8805
SWIDTH 583 0
DWIDTH 14 0
BBX 12 16 1 0
BITMAP
8000
E000
F800
3E00
0780
01E0
0070
01F0
07C0
1E00
7800
E000
8000
0000
FFF0
FFF0
ENDCHAR
STARTCHAR 22F2
ENCODING 8946
SWIDTH 583 0
DWIDTH 14 0
BBX 12 7 1 3
BITMAP
7810
FF30
87E0
78E0
FF30
CFF0
81C0
ENDCHAR
STARTCHAR 25CA
ENCODING 9674
SWIDTH 500 0
DWIDTH 12 0
BBX 12 19 0 0
BITMAP
0600
0F00
0F00
1F80
1980
39C0
30C0
70E0
6060
E070
6060
70E0
30C0
39C0
1980
1F80
0F00
0700
0600
ENDCHAR
STARTCHAR F000
ENCODING 61440
SWIDTH 833 0
DWIDTH 20 0
BBX 15 18 2 -1
BITMAP
0020
00E0
00E0
00C0
3EFC
7FFE
7FFC
FFF8
FFF8
FFF8
FFF8
FFF8
7FFC
7FFE
7FFE
3FFC
1FFC
0C38
ENDCHAR
STARTCHAR F001
ENCODING 61441
SWIDTH 500 0
DWIDTH 12 0
BBX 10 17 1 1
BITMAP
1CC0
3CC0
3000
3000
FCC0
FCC0
30C0
30C0
30C0
30C0
30C0
30C0
30C0
30C0
30C0
30C0
30C0
ENDCHAR
STARTCHAR F002
ENCODING 61442
SWIDTH 500 0
DWIDTH 12 0
BBX 10 17 1 1
BITMAP
1CC0
3CC0
30C0
30C0
FCC0
FCC0
30C0
30C0
30C0
30C0
30C0
30C0
30C0
30C0
30C0
30C0
30C0
ENDCHAR
ENDFONT
